<?xml version="1.0" encoding="UTF-8" standalone="no"?>
<!-- Created with Inkscape (http://www.inkscape.org/) -->

<svg
   xmlns:dc="http://purl.org/dc/elements/1.1/"
   xmlns:cc="http://creativecommons.org/ns#"
   xmlns:rdf="http://www.w3.org/1999/02/22-rdf-syntax-ns#"
   xmlns:svg="http://www.w3.org/2000/svg"
   xmlns="http://www.w3.org/2000/svg"
   xmlns:sodipodi="http://sodipodi.sourceforge.net/DTD/sodipodi-0.dtd"
   xmlns:inkscape="http://www.inkscape.org/namespaces/inkscape"
   width="210mm"
   height="297mm"
   viewBox="0 0 210 297"
   version="1.1"
   id="svg8"
   inkscape:version="0.92.3 (2405546, 2018-03-11)"
   sodipodi:docname="drawing-1.svg">
  <defs
     id="defs2" />
  <sodipodi:namedview
     id="base"
     pagecolor="#ffffff"
     bordercolor="#666666"
     borderopacity="1.0"
     inkscape:pageopacity="0.0"
     inkscape:pageshadow="2"
     inkscape:zoom="2.8"
     inkscape:cx="306.18127"
     inkscape:cy="522.70876"
     inkscape:document-units="mm"
     inkscape:current-layer="layer1"
     showgrid="false"
     inkscape:window-width="1920"
     inkscape:window-height="1137"
     inkscape:window-x="-8"
     inkscape:window-y="-8"
     inkscape:window-maximized="1" />
  <metadata
     id="metadata5">
    <rdf:RDF>
      <cc:Work
         rdf:about="">
        <dc:format>image/svg+xml</dc:format>
        <dc:type
           rdf:resource="http://purl.org/dc/dcmitype/StillImage" />
        <dc:title />
      </cc:Work>
    </rdf:RDF>
  </metadata>
  <g
     inkscape:label="Layer 1"
     inkscape:groupmode="layer"
     id="layer1">
    <path
       style="opacity:1;fill:#ffccaa;fill-opacity:1;fill-rule:nonzero;stroke:none;stroke-width:0.06845831;stroke-linejoin:round;stroke-miterlimit:4;stroke-dasharray:0.13691661, 0.27383321999999999;stroke-dashoffset:0;stroke-opacity:1"
       d="m 118.32436,176.86637 c -0.37625,-0.046 -0.77786,-0.19605 -1.01411,-0.37912 -0.13151,-0.10195 -0.3532,-0.32823 -0.45718,-0.46672 -0.17525,-0.2334 -0.32312,-0.53247 -0.36545,-0.73907 -0.0284,-0.13866 -0.0542,-0.58013 -0.0431,-0.73833 0.011,-0.15625 0.0353,-0.27248 0.0946,-0.45128 0.23329,-0.70301 0.77899,-1.19426 1.53046,-1.37777 0.36192,-0.0883 0.49416,-0.0926 0.81725,-0.0264 0.4292,0.088 0.78209,0.25492 1.06812,0.50498 0.38431,0.33598 0.64715,0.86164 0.68142,1.36275 0.0119,0.17472 -0.0141,0.61521 -0.0439,0.74054 -0.0428,0.18068 -0.19056,0.48879 -0.32627,0.68049 -0.31154,0.44008 -0.79144,0.75639 -1.31437,0.86635 -0.1421,0.0298 -0.47357,0.0423 -0.6276,0.0234 z"
       id="path886"
       inkscape:connector-curvature="0"
       sodipodi:nodetypes="ccccccccccccccc"
       inkscape:export-xdpi="100.001"
       inkscape:export-ydpi="100.001" />
    <path
       inkscape:connector-curvature="0"
       id="path850"
       d="m 118.46404,176.75326 c -0.0576,-0.0149 -0.14511,-0.0689 -0.18253,-0.11261 -0.0649,-0.0759 -0.0844,-0.1292 -0.0845,-0.23142 -4e-5,-0.0501 0.004,-0.10912 0.009,-0.13121 l 0.009,-0.0402 -0.0789,-1.2e-4 c -0.0618,-8e-5 -0.0916,-0.006 -0.13775,-0.0274 -0.0726,-0.0336 -0.14256,-0.0999 -0.1803,-0.17065 -0.0254,-0.0477 -0.0285,-0.0652 -0.0285,-0.16066 -10e-6,-0.0906 0.004,-0.11406 0.0241,-0.1522 0.0133,-0.0248 0.0241,-0.0472 0.0241,-0.0497 0,-0.003 -0.052,-0.006 -0.11555,-0.009 -0.10582,-0.004 -0.12184,-0.007 -0.19012,-0.0407 -0.29788,-0.14663 -0.36183,-0.5375 -0.12492,-0.76348 0.0733,-0.0699 0.12676,-0.0991 0.2308,-0.12601 0.0421,-0.0109 0.0754,-0.0238 0.0739,-0.0287 -0.001,-0.005 -0.0153,-0.045 -0.0307,-0.0892 -0.13044,-0.37448 0.27071,-0.71983 0.62788,-0.54054 0.0581,0.0292 0.13932,0.099 0.15997,0.1376 0.008,0.0154 0.0214,0.0281 0.0293,0.0281 0.0203,0 0.0212,-0.95839 9.3e-4,-0.97099 -0.0213,-0.0132 -0.27654,-0.009 -0.32619,0.005 -0.0439,0.0127 -0.11027,0.0589 -0.11027,0.0768 0,0.005 0.017,0.0145 0.0378,0.0214 0.0911,0.0301 0.14969,0.1171 0.14193,0.21072 -0.0165,0.19842 -0.32132,0.18709 -0.37509,-0.0139 -0.0147,-0.0551 -0.0283,-0.0581 -0.0853,-0.0186 -0.0289,0.02 -0.0529,0.0525 -0.0824,0.1114 -0.0404,0.0806 -0.0462,0.1058 -0.0604,0.25978 l -0.007,0.0728 -0.0607,-0.003 -0.0607,-0.003 -0.003,-0.042 c -0.006,-0.0757 0.0198,-0.22257 0.0538,-0.30427 0.0581,-0.13945 0.12514,-0.20582 0.25556,-0.25282 0.0615,-0.0222 0.0736,-0.0316 0.11179,-0.0868 0.0919,-0.13291 0.16916,-0.16575 0.41236,-0.17518 l 0.16601,-0.006 0.005,-0.14995 0.005,-0.14995 h 0.0589 0.0589 l 0.003,0.14727 c 0.003,0.16532 0.002,0.16364 0.0787,0.12131 0.12181,-0.0675 0.29498,-0.0997 0.43883,-0.0816 0.15564,0.0195 0.35346,0.10387 0.46489,0.19825 l 0.0429,0.0363 -0.0249,0.0478 c -0.0139,0.0266 -0.046,0.0629 -0.0723,0.0818 -0.026,0.0187 -0.0474,0.0358 -0.0474,0.038 0,0.002 0.0439,0.0271 0.0976,0.0554 0.16412,0.0865 0.26704,0.19978 0.28858,0.31753 0.009,0.0504 -0.005,0.0676 -0.0886,0.11039 -0.0428,0.0218 -0.0787,0.0304 -0.14764,0.0352 l -0.091,0.006 -7.7e-4,0.0803 c -9.4e-4,0.0918 -0.0208,0.18579 -0.0433,0.2045 -0.0108,0.009 -0.041,0.0106 -0.10081,0.006 -0.047,-0.004 -0.0854,-0.004 -0.0854,1.6e-4 0,0.004 0.0117,0.0367 0.026,0.0725 0.0483,0.12108 0.0459,0.25999 -0.006,0.3627 -0.0113,0.0223 -0.0182,0.0445 -0.0152,0.0493 0.003,0.005 0.0341,0.0118 0.0692,0.0154 0.18143,0.019 0.34544,0.15475 0.39869,0.33007 0.0331,0.10911 0.0252,0.23686 -0.0207,0.33509 -0.046,0.0983 -0.12601,0.17951 -0.22506,0.22846 -0.0738,0.0365 -0.0889,0.0399 -0.19091,0.0437 -0.0609,0.002 -0.11076,0.008 -0.11076,0.0122 0,0.004 0.0106,0.0316 0.0236,0.0604 0.0179,0.0395 0.0238,0.0732 0.0241,0.13815 4.7e-4,0.076 -0.004,0.0942 -0.0348,0.15753 -0.0614,0.12483 -0.16307,0.19116 -0.30749,0.20073 -0.0677,0.004 -0.0853,0.009 -0.0838,0.0217 0.001,0.009 0.008,0.0459 0.0144,0.0823 0.0293,0.1553 -0.0629,0.32525 -0.21257,0.39161 -0.0542,0.024 -0.17663,0.0345 -0.23283,0.02 z m 0.20708,-0.15803 c 0.0252,-0.0146 0.0589,-0.0464 0.075,-0.0707 0.0255,-0.0385 0.0292,-0.0547 0.0292,-0.12688 0,-0.0757 -0.003,-0.0867 -0.0336,-0.12931 -0.0887,-0.12278 -0.26494,-0.13018 -0.36575,-0.0154 -0.0772,0.0879 -0.0728,0.21147 0.0107,0.30205 0.0751,0.0815 0.18612,0.0972 0.28448,0.0402 z m -0.40562,-0.52142 c 0.0876,-0.058 0.12968,-0.1721 0.0984,-0.26698 -0.0186,-0.0564 -0.0804,-0.12178 -0.13463,-0.1425 -0.17964,-0.0686 -0.35694,0.0949 -0.30481,0.28115 0.0168,0.06 0.0869,0.13592 0.14052,0.15222 0.0627,0.019 0.1517,0.008 0.20056,-0.0239 z m 0.7806,0.0189 c 0.1585,-0.0662 0.19216,-0.27399 0.0628,-0.38758 -0.048,-0.0422 -0.10368,-0.0601 -0.16768,-0.0539 -0.17004,0.0163 -0.26506,0.2027 -0.17644,0.34603 0.0586,0.0947 0.18243,0.13678 0.28133,0.0955 z m -0.43062,-0.0878 c -0.004,-0.0162 -0.01,-0.0632 -0.0131,-0.10443 -0.006,-0.0717 0.004,-0.12033 0.0439,-0.21153 0.007,-0.0171 -4.7e-4,-0.0188 -0.0894,-0.0188 -0.0537,0 -0.0975,0.004 -0.0975,0.009 0,0.005 0.008,0.0276 0.0169,0.0498 0.0347,0.083 0.038,0.17327 0.0102,0.27547 l -0.008,0.0295 h 0.072 0.072 z m -0.75955,-0.48622 c 0.0821,-0.0307 0.15358,-0.0989 0.19094,-0.18217 0.0262,-0.0584 0.0289,-0.0751 0.0249,-0.15259 -0.004,-0.0702 -0.0105,-0.098 -0.0355,-0.14385 -0.10623,-0.19516 -0.36287,-0.23761 -0.53308,-0.0882 -0.0217,0.0191 -0.0545,0.0652 -0.0729,0.10265 -0.0309,0.0627 -0.0332,0.075 -0.0297,0.15707 0.003,0.0671 0.01,0.10096 0.0288,0.13725 0.0447,0.0862 0.12661,0.1555 0.21597,0.18278 0.0532,0.0163 0.14813,0.0104 0.21059,-0.013 z m 0.84484,-0.0118 c 0.0655,-0.0334 0.13841,-0.11015 0.16773,-0.17643 0.0341,-0.077 0.0312,-0.18399 -0.007,-0.26863 -0.1192,-0.26304 -0.48894,-0.26704 -0.61708,-0.007 -0.0216,0.0439 -0.0259,0.0688 -0.0259,0.14912 0,0.0868 0.003,0.10209 0.0318,0.15376 0.0395,0.0713 0.10885,0.13342 0.18091,0.16198 0.0776,0.0308 0.19495,0.0251 0.26973,-0.0131 z m 0.77147,0.0189 c 0.0843,-0.0254 0.15395,-0.0857 0.19741,-0.17089 0.0334,-0.0655 0.0374,-0.0824 0.0369,-0.1549 -9.4e-4,-0.13615 -0.072,-0.24797 -0.19598,-0.30863 -0.0787,-0.0385 -0.19398,-0.041 -0.27167,-0.006 -0.0708,0.032 -0.15146,0.11088 -0.17918,0.17533 -0.11723,0.2725 0.12921,0.55031 0.41252,0.46503 z m -1.29333,-0.0214 c 0.005,-0.005 -0.0232,-0.0484 -0.0311,-0.0484 -0.0147,0 -0.0435,0.0424 -0.0365,0.0538 0.006,0.0104 0.0556,0.007 0.0675,-0.005 z m 0.8126,-6.2e-4 c 0.002,-0.006 -0.004,-0.0206 -0.0126,-0.0321 -0.016,-0.0207 -0.0166,-0.0206 -0.0381,0.005 -0.0171,0.0202 -0.0189,0.0278 -0.008,0.0349 0.0178,0.0116 0.0539,0.007 0.0587,-0.008 z m 0.10742,-0.7402 c 0.19299,-0.0912 0.23652,-0.36153 0.082,-0.50931 -0.12525,-0.11979 -0.32211,-0.11883 -0.44309,0.002 -0.12144,0.12143 -0.12239,0.31813 -0.002,0.44272 0.0962,0.0997 0.23606,0.12453 0.36326,0.0644 z m -0.85659,9.3e-4 c 0.19553,-0.0974 0.23896,-0.35547 0.0852,-0.50601 -0.12748,-0.12479 -0.32224,-0.12479 -0.44703,0 -0.1516,0.1516 -0.10411,0.41504 0.0915,0.5078 0.0777,0.0368 0.1944,0.036 0.27033,-0.002 z m 0.32412,-0.0559 c 0,-0.0105 -0.008,-0.0301 -0.0173,-0.0437 l -0.0173,-0.0246 -0.0202,0.0332 c -0.0282,0.0463 -0.0256,0.0542 0.0173,0.0542 0.0288,0 0.0375,-0.004 0.0375,-0.019 z m 0.15668,-0.60727 c 0.0346,-0.0205 0.0701,-0.0415 0.079,-0.0468 0.0128,-0.008 -3.1e-4,-0.0252 -0.0643,-0.0859 -0.0442,-0.042 -0.084,-0.0764 -0.0884,-0.0764 -0.004,-2e-5 -0.008,0.0554 -0.008,0.12313 0,0.0677 0.004,0.12317 0.009,0.12317 0.005,0 0.0377,-0.0167 0.0723,-0.0372 z m 0.71552,-0.0913 c -6.2e-4,-0.061 -0.006,-0.0913 -0.0244,-0.12606 -0.0177,-0.0341 -0.0202,-0.0468 -0.01,-0.0501 0.008,-0.002 0.0801,-0.009 0.16133,-0.0157 0.20308,-0.0155 0.22241,-0.029 0.15239,-0.10654 -0.0634,-0.0702 -0.24182,-0.17875 -0.43121,-0.26236 -0.0368,-0.0162 -0.0669,-0.0335 -0.0669,-0.0383 0,-0.005 0.021,-0.0146 0.0467,-0.0218 0.0654,-0.0183 0.19967,-0.0944 0.19967,-0.11312 0,-0.022 -0.13717,-0.0884 -0.23322,-0.11298 -0.14357,-0.0367 -0.29308,-0.0235 -0.42707,0.0377 -0.10267,0.0469 -0.10017,0.0398 -0.10017,0.28231 0,0.20612 7.8e-4,0.21367 0.0274,0.26715 0.0571,0.1145 0.22976,0.23779 0.40888,0.29191 0.0952,0.0288 0.22216,0.0528 0.26525,0.0502 l 0.0321,-0.002 -7.8e-4,-0.0803 z m -1.33376,-0.42187 c 0.0197,-0.0237 -0.007,-0.0681 -0.0486,-0.082 -0.042,-0.0139 -0.0576,-0.007 -0.0574,0.0252 1.6e-4,0.0316 0.0114,0.0471 0.043,0.0597 0.0369,0.0147 0.0488,0.0142 0.063,-0.003 z"
       style="fill:#800000;stroke-width:0.01071067"
       inkscape:export-xdpi="100.001"
       inkscape:export-ydpi="100.001" />
    <path
       inkscape:connector-curvature="0"
       id="path880"
       d="m 118.51513,178.71775 c -0.016,-0.0395 -0.12981,-0.36761 -0.25301,-0.72907 -0.1232,-0.36145 -0.25537,-0.68659 -0.29371,-0.72253 -0.0383,-0.0359 -0.17726,-0.10511 -0.30871,-0.15371 -0.46435,-0.17169 -0.98211,-0.6091 -1.23659,-1.04469 -0.92707,-1.58685 0.13984,-3.62637 1.96437,-3.75513 1.17874,-0.0832 2.25584,0.66204 2.58737,1.79014 0.36642,1.24684 -0.32844,2.59911 -1.56401,3.0437 -0.13973,0.0503 -0.26605,0.12172 -0.2807,0.15876 -0.0147,0.037 -0.12491,0.35384 -0.24502,0.704 -0.26425,0.77039 -0.26821,0.78041 -0.30869,0.78041 -0.0178,0 -0.0453,-0.0323 -0.0613,-0.0719 z m 0.59808,-1.96588 c 0.58194,-0.17266 1.04147,-0.56519 1.30098,-1.1113 0.13937,-0.29331 0.15425,-0.35872 0.16846,-0.7408 0.0126,-0.33845 -7.7e-4,-0.47279 -0.0694,-0.69826 -0.22416,-0.73601 -0.79591,-1.23847 -1.58586,-1.39368 -0.34795,-0.0684 -0.3815,-0.0683 -0.71737,7.7e-4 -0.78104,0.16072 -1.34854,0.66464 -1.57096,1.39494 -0.0706,0.23184 -0.0824,0.35538 -0.0669,0.70347 0.0169,0.38051 0.0336,0.45352 0.16909,0.73875 0.17154,0.36123 0.5477,0.7714 0.8502,0.92709 0.47485,0.24438 1.06675,0.31402 1.52176,0.17901 z"
       style="fill:#000000;stroke-width:0.04107426"
       sodipodi:nodetypes="ccccssscccscccscccsssccc"
       inkscape:export-xdpi="100.001"
       inkscape:export-ydpi="100.001" />
    <path
       inkscape:connector-curvature="0"
       id="path901"
       d="m 125.56559,179.29303 c -0.76331,-0.0786 -1.25698,-0.30188 -1.33931,-0.60558 -0.0365,-0.13439 0.0835,-0.22822 0.39739,-0.31101 0.25956,-0.0684 0.84912,-0.14237 0.88102,-0.11047 0.006,0.006 -0.054,0.0269 -0.13195,0.0479 -0.26921,0.0725 -0.5276,0.22188 -0.5276,0.30491 0,0.0762 0.18036,0.15215 0.48888,0.20608 0.24406,0.0427 1.10845,0.0433 1.34729,8e-4 0.32006,-0.0567 0.47958,-0.12645 0.47958,-0.20967 0,-0.0884 -0.19536,-0.20451 -0.49482,-0.29414 -0.16248,-0.0486 -0.17952,-0.0759 -0.0396,-0.0635 0.58306,0.0518 0.98092,0.14935 1.1115,0.2725 0.0579,0.0546 0.0615,0.0641 0.0532,0.13752 -0.0306,0.27213 -0.50688,0.51564 -1.18779,0.60738 -0.18398,0.0247 -0.85591,0.0359 -1.03781,0.0171 z m 0.35528,-0.89573 c -0.068,-0.14366 -0.22429,-0.47326 -0.34723,-0.73244 l -0.22353,-0.47122 -0.16243,-0.0614 c -0.36133,-0.13662 -0.64236,-0.32019 -0.90774,-0.59296 -0.33761,-0.34701 -0.55047,-0.75385 -0.64693,-1.23648 -0.0456,-0.22813 -0.0415,-0.67754 0.008,-0.91022 0.20799,-0.97046 0.91519,-1.68142 1.88618,-1.89621 0.24013,-0.0532 0.72781,-0.0532 0.96795,0 0.84603,0.18715 1.51326,0.77072 1.79538,1.57028 0.097,0.275 0.12817,0.46628 0.12895,0.79231 7.6e-4,0.31492 -0.0219,0.47506 -0.10413,0.73529 -0.21351,0.6759 -0.76151,1.26015 -1.42076,1.51477 -0.0661,0.0255 -0.12868,0.0528 -0.13921,0.0605 -0.0105,0.008 -0.16809,0.34597 -0.35015,0.75156 -0.18206,0.40559 -0.33778,0.73743 -0.34605,0.73743 -0.008,0 -0.0707,-0.11754 -0.13873,-0.26121 z m 0.49343,-1.86561 c 0.49474,-0.13401 0.88824,-0.45405 1.10807,-0.90123 0.3337,-0.67879 0.19573,-1.46958 -0.34727,-1.99054 -0.59379,-0.56967 -1.47538,-0.64225 -2.16006,-0.17782 -0.31773,0.21552 -0.55907,0.55346 -0.67905,0.95085 -0.0431,0.14274 -0.0466,0.17702 -0.0465,0.45457 1.9e-4,0.35113 0.0248,0.46945 0.15344,0.73666 0.10145,0.21077 0.19534,0.34028 0.3614,0.49844 0.25558,0.24345 0.51986,0.38082 0.87487,0.45475 0.17321,0.0361 0.55648,0.0227 0.73505,-0.0257 z m -0.61202,-0.94143 c -0.1421,-0.047 -0.23776,-0.10853 -0.3361,-0.21612 -0.41504,-0.45413 -0.16331,-1.17708 0.44551,-1.2795 0.37826,-0.0637 0.76672,0.18757 0.86252,0.55778 0.0517,0.19996 0.0216,0.42058 -0.0814,0.5964 -0.065,0.1109 -0.22041,0.24827 -0.34894,0.30841 -0.0976,0.0457 -0.13769,0.0542 -0.27889,0.0594 -0.12786,0.005 -0.18685,-0.002 -0.2627,-0.0263 z"
       style="fill:#060606;stroke-width:0.01715378"
       inkscape:export-xdpi="100.001"
       inkscape:export-ydpi="100.001" />
    <path
       inkscape:connector-curvature="0"
       id="path901-0"
       d="m 125.73989,177.86795 c -0.76331,0.0786 -1.25698,0.30188 -1.33931,0.60558 -0.0365,0.13439 0.0835,0.22822 0.39739,0.31101 0.25956,0.0684 0.84912,0.14237 0.88102,0.11047 0.006,-0.006 -0.054,-0.0269 -0.13195,-0.0479 -0.26921,-0.0725 -0.5276,-0.22188 -0.5276,-0.30491 0,-0.0762 0.18036,-0.15215 0.48888,-0.20608 0.24406,-0.0427 1.10845,-0.0433 1.34729,-8e-4 0.32006,0.0567 0.47958,0.12645 0.47958,0.20967 0,0.0884 -0.19536,0.20451 -0.49482,0.29414 -0.16248,0.0486 -0.17952,0.0759 -0.0396,0.0635 0.58306,-0.0518 0.98092,-0.14935 1.1115,-0.2725 0.0579,-0.0546 0.0615,-0.0641 0.0532,-0.13752 -0.0306,-0.27213 -0.50688,-0.51564 -1.18779,-0.60738 -0.18398,-0.0247 -0.85591,-0.0359 -1.03781,-0.0171 z m 0.35528,0.89573 c -0.068,0.14366 -0.22429,0.47326 -0.34723,0.73244 l -0.22353,0.47122 -0.16243,0.0614 c -0.36133,0.13662 -0.64236,0.32019 -0.90774,0.59296 -0.33761,0.34701 -0.55047,0.75385 -0.64693,1.23648 -0.0456,0.22813 -0.0415,0.67754 0.008,0.91022 0.20799,0.97046 0.91519,1.68142 1.88618,1.89621 0.24013,0.0532 0.72781,0.0532 0.96795,0 0.84603,-0.18715 1.51326,-0.77072 1.79538,-1.57028 0.097,-0.275 0.12817,-0.46628 0.12895,-0.79231 7.7e-4,-0.31492 -0.0219,-0.47506 -0.10413,-0.73529 -0.21351,-0.6759 -0.76151,-1.26015 -1.42076,-1.51477 -0.0661,-0.0255 -0.12868,-0.0528 -0.13921,-0.0605 -0.0105,-0.008 -0.16809,-0.34597 -0.35015,-0.75156 -0.18206,-0.40559 -0.33778,-0.73743 -0.34605,-0.73743 -0.008,0 -0.0707,0.11754 -0.13873,0.26121 z m 0.49343,1.86561 c 0.49474,0.13401 0.88824,0.45405 1.10807,0.90123 0.3337,0.67879 0.19573,1.46958 -0.34727,1.99054 -0.59379,0.56967 -1.47538,0.64225 -2.16006,0.17782 -0.31773,-0.21552 -0.55907,-0.55346 -0.67905,-0.95085 -0.0431,-0.14274 -0.0466,-0.17702 -0.0465,-0.45457 1.9e-4,-0.35113 0.0248,-0.46945 0.15344,-0.73666 0.10145,-0.21077 0.19534,-0.34028 0.3614,-0.49844 0.25558,-0.24345 0.51986,-0.38082 0.87487,-0.45475 0.17321,-0.0361 0.55648,-0.0227 0.73505,0.0257 z m -0.61202,0.94143 c -0.1421,0.047 -0.23776,0.10853 -0.3361,0.21612 -0.41504,0.45413 -0.16331,1.17708 0.44551,1.2795 0.37826,0.0637 0.76672,-0.18757 0.86252,-0.55778 0.0517,-0.19996 0.0216,-0.42058 -0.0814,-0.5964 -0.065,-0.1109 -0.22041,-0.24827 -0.34894,-0.30841 -0.0976,-0.0457 -0.13769,-0.0542 -0.27889,-0.0594 -0.12786,-0.005 -0.18685,0.002 -0.2627,0.0263 z"
       style="fill:none;stroke-width:0.01715378"
       inkscape:export-xdpi="100.001"
       inkscape:export-ydpi="100.001" />
    <path
       inkscape:connector-curvature="0"
       id="path946"
       d="m 42.123552,161.5471 c -0.327647,-0.0881 -0.659254,-0.36404 -0.808943,-0.67326 -0.07501,-0.15495 -0.147972,-0.47993 -0.122595,-0.54607 0.0093,-0.0242 0.109514,-0.0696 0.222713,-0.10068 0.30097,-0.0829 0.603222,-0.27568 0.850064,-0.54229 l 0.214597,-0.23179 0.193918,0.21163 c 0.245257,0.26766 0.492224,0.43182 0.823654,0.54753 l 0.260894,0.0911 -0.0075,0.1702 c -0.0053,0.11828 -0.04242,0.24103 -0.121954,0.40243 -0.278255,0.56466 -0.888515,0.83686 -1.504841,0.67123 z m -1.587857,-1.82045 c -0.511557,-0.16983 -0.853585,-0.59951 -0.89829,-1.12849 -0.02954,-0.34948 -0.02526,-0.35446 0.322897,-0.37659 0.44405,-0.0282 0.695521,-0.12946 1.1502,-0.46308 0.06773,-0.0497 0.078,-0.0497 0.145725,0 0.275268,0.20198 0.483685,0.31928 0.678952,0.38218 0.136366,0.0439 0.238419,0.0973 0.258745,0.13524 0.05133,0.0959 0.01066,0.49773 -0.0725,0.71616 -0.103007,0.27058 -0.423976,0.59176 -0.695178,0.69563 -0.265948,0.10186 -0.650384,0.11868 -0.890547,0.0389 z m 3.108817,-0.002 c -0.54195,-0.17415 -0.903031,-0.67029 -0.905946,-1.24485 -0.0012,-0.2242 0.03317,-0.26556 0.283253,-0.34152 0.190949,-0.058 0.399911,-0.17485 0.679364,-0.3799 0.06773,-0.0497 0.078,-0.0497 0.145725,0 0.458273,0.33625 0.709816,0.43767 1.150112,0.46371 0.348774,0.0206 0.352044,0.0245 0.323322,0.38232 -0.06485,0.80791 -0.903395,1.36845 -1.67583,1.12024 z m -4.112706,-2.04074 c -0.356287,-0.11538 -0.720311,-0.44861 -0.842758,-0.77146 -0.07632,-0.20125 -0.11793,-0.53417 -0.08376,-0.67029 0.01925,-0.0767 0.03532,-0.0838 0.190415,-0.084 0.400448,-6e-4 0.792414,-0.11871 1.110043,-0.33455 l 0.119915,-0.0814 0.165964,0.10974 c 0.210029,0.13888 0.533023,0.25945 0.773123,0.28859 0.221282,0.0268 0.238068,0.06 0.208605,0.4114 -0.02478,0.29554 -0.136436,0.53269 -0.362307,0.76949 -0.261674,0.27434 -0.489764,0.37204 -0.890632,0.3815 -0.169205,0.004 -0.344076,-0.004 -0.388603,-0.0189 z m 2.643069,-0.005 c -0.174272,-0.0438 -0.481255,-0.21218 -0.585921,-0.32143 l -0.08726,-0.0911 0.08816,-0.23823 c 0.07172,-0.1938 0.09007,-0.30389 0.09839,-0.59024 0.0056,-0.1936 0.01455,-0.35509 0.01984,-0.35887 0.0053,-0.004 0.08976,-0.0387 0.18772,-0.0777 0.09796,-0.039 0.265258,-0.13614 0.371774,-0.21594 0.106514,-0.0798 0.202488,-0.14507 0.213274,-0.14507 0.01078,0 0.08839,0.0536 0.172449,0.11906 0.08406,0.0655 0.255572,0.17116 0.381133,0.23479 l 0.228292,0.1157 0.0083,0.34003 c 0.0067,0.27663 0.02472,0.38445 0.09649,0.57826 l 0.08822,0.23823 -0.09181,0.0959 c -0.0505,0.0527 -0.195489,0.14715 -0.322212,0.20981 -0.191325,0.0946 -0.273714,0.11599 -0.485753,0.12615 -0.14044,0.007 -0.311922,-0.001 -0.381067,-0.0193 z m 2.492265,-0.032 c -0.365841,-0.12989 -0.606766,-0.34981 -0.773484,-0.70608 -0.320799,-0.68554 0.05459,-1.52723 0.782444,-1.75439 0.924098,-0.28841 1.828062,0.49389 1.665735,1.44154 -0.07327,0.42776 -0.313255,0.74837 -0.70517,0.94206 -0.312513,0.15445 -0.67095,0.18287 -0.969525,0.0769 z m -6.188221,-2.06268 c -0.392209,-0.14078 -0.627277,-0.35131 -0.805092,-0.72109 -0.09155,-0.19037 -0.101223,-0.23996 -0.101223,-0.51882 0,-0.28122 0.0091,-0.32677 0.103297,-0.51813 0.05681,-0.1154 0.153529,-0.2681 0.214925,-0.33935 0.134807,-0.15643 0.403726,-0.32229 0.611665,-0.37726 l 0.152684,-0.0403 0.219726,0.21208 c 0.120851,0.11666 0.304813,0.26009 0.408808,0.31877 0.170021,0.0959 0.187174,0.11518 0.170183,0.19102 -0.07457,0.33287 -0.08912,0.47009 -0.07282,0.68722 0.01805,0.24056 0.130784,0.60773 0.235824,0.76807 0.04471,0.0683 0.04439,0.0813 -0.0033,0.13398 -0.02906,0.0321 -0.141552,0.0982 -0.249992,0.14685 -0.261704,0.11745 -0.647115,0.14228 -0.884683,0.0571 z m 2.331612,-0.001 c -0.387363,-0.13395 -0.627893,-0.34899 -0.804157,-0.71894 -0.09001,-0.18895 -0.100381,-0.24207 -0.101223,-0.51878 -8.94e-4,-0.28447 0.0074,-0.32509 0.106266,-0.52608 0.05896,-0.11979 0.175542,-0.28785 0.259068,-0.37345 0.161217,-0.16524 0.513595,-0.36279 0.647127,-0.36279 0.05474,0 0.154347,0.0705 0.314431,0.22257 0.267982,0.25456 0.542431,0.40362 0.867964,0.47142 0.121218,0.0252 0.240161,0.0623 0.264319,0.0823 0.07104,0.059 0.123781,0.34732 0.106835,0.58416 -0.01829,0.25568 -0.148008,0.56394 -0.319614,0.75957 -0.324164,0.36953 -0.899652,0.53259 -1.341016,0.37997 z m 2.380611,-0.086 c -0.08015,-0.0421 -0.202832,-0.12611 -0.272629,-0.18682 l -0.126903,-0.11037 0.09348,-0.2563 c 0.07665,-0.21017 0.09367,-0.3089 0.09452,-0.54841 5.7e-4,-0.16065 -0.01104,-0.36704 -0.02581,-0.45865 l -0.02685,-0.16656 0.159266,-0.0529 c 0.08759,-0.0291 0.238119,-0.10314 0.334495,-0.16455 0.09638,-0.0614 0.195812,-0.11202 0.220968,-0.11246 0.02516,-6.1e-4 0.112971,0.0423 0.195142,0.095 0.231738,0.14872 0.559664,0.25822 0.852933,0.28484 0.253368,0.023 0.267682,0.0286 0.312142,0.12124 0.05198,0.10838 0.08522,0.56466 0.04485,0.61566 -0.01426,0.0181 -0.149396,0.0576 -0.300299,0.0882 -0.150904,0.0305 -0.366786,0.1009 -0.479735,0.1565 -0.233692,0.11505 -0.575662,0.41936 -0.709719,0.63156 -0.10492,0.16607 -0.154715,0.17479 -0.365844,0.064 z m 3.408048,-0.0582 c -0.201524,-0.26056 -0.526352,-0.53864 -0.768629,-0.658 l -0.258905,-0.12756 0.0096,-0.22655 c 0.0084,-0.20045 -0.0045,-0.30562 -0.0776,-0.63363 -0.0167,-0.0748 0.0026,-0.0956 0.192721,-0.20679 0.11621,-0.0679 0.295922,-0.20974 0.399361,-0.31507 0.18007,-0.18335 0.193493,-0.19068 0.315621,-0.17235 0.185717,0.028 0.484238,0.19833 0.636295,0.36329 0.463202,0.50252 0.463789,1.26819 0.0013,1.7694 -0.08313,0.0901 -0.337278,0.28012 -0.374655,0.28012 -0.01032,0 -0.04413,-0.0327 -0.07512,-0.0729 z m -4.475638,-2.18107 c -0.620064,-0.16663 -1.027249,-0.81203 -0.917295,-1.45393 0.07295,-0.42585 0.313532,-0.7485 0.700867,-0.93992 1.112042,-0.54961 2.271546,0.6099 1.721945,1.72194 -0.279543,0.56562 -0.888976,0.83761 -1.505517,0.67191 z m 2.330547,7.5e-4 c -0.08015,-0.0254 -0.204016,-0.0797 -0.275259,-0.12077 -0.155269,-0.0895 -0.159522,-0.14245 -0.03497,-0.43552 0.186615,-0.4391 0.185908,-0.94017 -0.002,-1.38166 -0.135499,-0.31845 -0.129168,-0.34089 0.133301,-0.47256 0.211764,-0.10624 0.245237,-0.11327 0.534328,-0.11208 0.243557,7.5e-4 0.347802,0.0169 0.495735,0.0756 0.263691,0.10464 0.545339,0.3735 0.677956,0.64716 0.09576,0.1976 0.104313,0.24141 0.105228,0.53891 8.2e-4,0.26526 -0.01259,0.35751 -0.07415,0.50994 -0.08671,0.21472 -0.333731,0.50089 -0.532982,0.61743 -0.301366,0.17627 -0.720183,0.23072 -1.027236,0.13354 z m -4.972401,-0.14089 c -0.500255,-0.28694 -0.745859,-0.93052 -0.567178,-1.48622 0.23558,-0.73265 1.058133,-1.11343 1.73541,-0.80337 0.313896,0.14371 0.317773,0.15105 0.206065,0.38975 -0.179008,0.38254 -0.219206,0.74047 -0.139402,1.24128 0.0164,0.10298 0.01127,0.13763 -0.02045,0.13763 -0.116083,0 -0.582335,0.26828 -0.755636,0.43481 -0.103313,0.0993 -0.212033,0.18034 -0.241601,0.18017 -0.02957,-1.2e-4 -0.127312,-0.0425 -0.217211,-0.0941 z m -1.376247,-1.7948 c -0.792935,-0.28225 -1.405542,-0.82243 -1.77705,-1.56695 -0.144153,-0.28889 -0.293801,-0.79325 -0.293933,-0.99063 l -8.1e-5,-0.12344 1.530121,0.0118 c 1.474921,0.0113 1.539439,0.0144 1.788434,0.0853 0.603061,0.17172 1.07878,0.45171 1.478706,0.87031 0.26051,0.27268 0.578402,0.75159 0.578402,0.87139 0,0.13556 -0.09327,0.14342 -0.281095,0.0238 -0.09475,-0.0604 -0.255943,-0.16328 -0.358206,-0.22867 -0.51338,-0.3282 -1.226594,-0.62125 -1.789463,-0.73526 -0.55909,-0.11324 -1.125487,-0.14911 -1.275436,-0.0808 -0.183389,0.0835 -0.178707,0.37367 0.0072,0.44377 0.04745,0.0179 0.246575,0.0412 0.442495,0.0518 0.495928,0.0268 1.408683,0.22738 1.408683,0.30951 0,0.0161 -0.09837,0.0761 -0.218588,0.13316 -0.279848,0.13291 -0.665561,0.51131 -0.805292,0.79004 -0.06306,0.1258 -0.119528,0.19714 -0.160145,0.20234 -0.03451,0.004 -0.158128,-0.0259 -0.274713,-0.0674 z m 4.114187,-1.76509 c 0,-0.53346 0.01084,-0.68487 0.06386,-0.89219 0.183216,-0.71637 0.749502,-1.30133 1.447693,-1.49544 0.285556,-0.0794 0.306801,-0.0638 0.295255,0.21598 l -0.0095,0.23087 -0.197934,0.0716 c -0.287485,0.10394 -0.46072,0.21506 -0.654159,0.41959 -0.190852,0.2018 -0.344101,0.49774 -0.394002,0.76087 -0.01819,0.0959 -0.03306,0.4346 -0.03306,0.75278 v 0.57848 h -0.259068 -0.259068 z"
       style="fill:#800000;stroke-width:0.03238351"
       inkscape:export-xdpi="100.001"
       inkscape:export-ydpi="100.001" />
    <path
       inkscape:connector-curvature="0"
       id="path965"
       d="m 69.970675,168.49221 c -0.0019,0.84001 -0.619737,1.6548 -1.437613,1.89564 -0.329557,0.0971 -0.830793,0.0868 -1.158523,-0.0237 -0.129658,-0.0437 -3.250564,-1.73204 -6.935374,-3.75186 -5.925509,-3.24803 -6.720368,-3.69804 -6.878868,-3.89431 -0.287186,-0.35565 -0.428863,-0.67635 -0.4765,-1.0784 -0.04926,-0.4132 0.08712,-0.30112 -1.262863,-1.04051 l -0.922231,-0.50512 0.401468,-0.73658 c 0.220806,-0.40511 0.411196,-0.73943 0.423075,-0.74291 0.01192,-0.003 0.498765,0.25273 1.081974,0.56934 l 1.060371,0.57568 0.326074,-0.15699 c 0.369839,-0.17807 0.692874,-0.2264 1.167408,-0.17469 0.250856,0.0274 1.055171,0.45177 6.990994,3.68902 3.689166,2.01196 6.798832,3.73125 6.910399,3.82065 0.455979,0.36531 0.711582,0.92493 0.710215,1.55474 z M 52.03083,152.36979 c 0.350328,1.92757 0.173172,3.85379 -0.520305,5.6567 -0.202747,0.52712 -0.765033,1.56797 -1.117836,2.06925 -1.465023,2.08157 -3.75055,3.60992 -6.118025,4.09117 -4.655648,0.94637 -9.132284,-1.21239 -11.241704,-5.42106 -0.370181,-0.73858 -0.883387,-2.44396 -0.958681,-3.18554 -0.22341,-2.20163 0.128852,-4.11565 1.096565,-5.95877 0.998726,-1.90214 2.480954,-3.35111 4.470368,-4.37005 0.46686,-0.23911 0.692654,-0.32158 1.620871,-0.59203 0.902379,-0.26287 1.179775,-0.32498 1.698876,-0.38002 4.32208,-0.45821 8.377398,1.78219 10.252347,5.66429 0.321592,0.66585 0.70356,1.79952 0.817468,2.42607 z m -2.173969,-1.37757 c -1.111605,-2.59275 -3.489749,-4.47481 -6.279251,-4.9694 -2.601575,-0.46128 -5.183208,0.2899 -7.161429,2.08377 -1.389002,1.25954 -2.354082,3.05227 -2.633597,4.89215 -0.551706,3.63155 1.206732,7.10503 4.451538,8.79327 2.552281,1.32794 5.552356,1.26779 8.05568,-0.16154 3.006234,-1.71648 4.658443,-5.11394 4.156236,-8.54648 -0.08217,-0.56071 -0.367829,-1.57565 -0.58919,-2.09176 z"
       style="fill:#090909;stroke-width:0.04992469"
       sodipodi:nodetypes="cccscccccccccccccccccscccccccccccccccccc"
       inkscape:export-xdpi="100.001"
       inkscape:export-ydpi="100.001" />
    <text
       xml:space="preserve"
       style="font-style:normal;font-weight:normal;font-size:8.8194437px;line-height:0.69999999;font-family:sans-serif;letter-spacing:0px;word-spacing:0px;fill:#800000;fill-opacity:1;stroke:none;stroke-width:0.26458332"
       x="30.899555"
       y="170.09448"
       id="text988"
       inkscape:export-xdpi="100.001"
       inkscape:export-ydpi="100.001"><tspan
         sodipodi:role="line"
         id="tspan986"
         x="30.899555"
         y="170.09448"
         style="font-weight:bold;font-size:7.05555534px;line-height:0.69999999;letter-spacing:-0.70908338px;fill:#800000;stroke-width:0.26458332">Palisade</tspan><tspan
         sodipodi:role="line"
         x="30.899555"
         y="176.2681"
         style="font-weight:bold;font-size:7.05555534px;line-height:0.69999999;letter-spacing:-0.70908338px;fill:#800000;stroke-width:0.26458332"
         id="tspan990">Wine Finder</tspan></text>
  </g>
</svg>
