<?xml version="1.0" encoding="UTF-8" standalone="no"?>
<!-- Created with Inkscape (http://www.inkscape.org/) -->

<svg
   xmlns:dc="http://purl.org/dc/elements/1.1/"
   xmlns:cc="http://creativecommons.org/ns#"
   xmlns:rdf="http://www.w3.org/1999/02/22-rdf-syntax-ns#"
   xmlns:svg="http://www.w3.org/2000/svg"
   xmlns="http://www.w3.org/2000/svg"
   xmlns:sodipodi="http://sodipodi.sourceforge.net/DTD/sodipodi-0.dtd"
   xmlns:inkscape="http://www.inkscape.org/namespaces/inkscape"
   width="744.09448819"
   height="1052.3622047"
   id="svg2"
   version="1.1"
   inkscape:version="0.48.2 r9819"
   sodipodi:docname="New document 1">
  <defs
     id="defs4" />
  <sodipodi:namedview
     id="base"
     pagecolor="#ffffff"
     bordercolor="#666666"
     borderopacity="1.0"
     inkscape:pageopacity="0.0"
     inkscape:pageshadow="2"
     inkscape:zoom="1.334375"
     inkscape:cx="494.47116"
     inkscape:cy="900.03239"
     inkscape:document-units="px"
     inkscape:current-layer="g2996"
     showgrid="false"
     inkscape:window-width="1280"
     inkscape:window-height="657"
     inkscape:window-x="-8"
     inkscape:window-y="-8"
     inkscape:window-maximized="1" />
  <metadata
     id="metadata7">
    <rdf:RDF>
      <cc:Work
         rdf:about="">
        <dc:format>image/svg+xml</dc:format>
        <dc:type
           rdf:resource="http://purl.org/dc/dcmitype/StillImage" />
        <dc:title></dc:title>
      </cc:Work>
    </rdf:RDF>
  </metadata>
  <g
     inkscape:label="Layer 1"
     inkscape:groupmode="layer"
     id="layer1">
    <g
       id="g2996"
       transform="translate(128.8993,103.4192)">
      <path
         style="fill:#0b0b0b"
         d="m -99.855364,-1.4916714 c -0.924326,3.811497 -1.406106,13.6185554 -1.359356,27.6709364 0.0415,12.469768 0.21113,13.672447 2.211936,15.681269 0.86896,0.8726 0.99458,1.191011 1.05505,2.676605 0.0759,1.864929 0.79493,2.902155 2.35627,3.399115 2.103547,0.66953 9.757651,-0.0957 17.786402,-1.778304 13.246588,-2.776049 22.992747,-6.712294 25.462384,-10.283644 0.78645,-1.137284 0.828951,-3.265924 0.110956,-5.556869 -0.372752,-1.189349 -0.568767,-1.405028 -5.713972,-6.28716 -2.930388,-2.780557 -5.298449,-5.180657 -5.262356,-5.333553 0.06992,-0.296169 2.545461,-3.716995 4.872344,-6.73284 5.712877,-7.4043734 16.476442,-18.6449394 22.823792,-23.835246 18.807677,-15.37927 35.22555786,-19.468774 49.537578,-12.339232 3.149441,1.56889 6.061452,3.627779 9.356594,6.615414 1.507981,1.367257 2.994037,2.516982 3.446272,2.666287 1.078147,0.355954 2.814662,-0.289518 3.508801,-1.30424 0.298341,-0.436128 0.641082,-1.304061 0.761645,-1.928732 0.120563,-0.624678 0.782584,-2.3012 1.471155,-3.72561 2.149883,-4.447334 3.957955,-9.122678 6.640054,-17.169973 1.424603,-4.27434 3.159067,-9.204429 3.854372,-10.955742 0.695291,-1.751327 1.643997,-4.361047 2.108232,-5.799387 0.464235,-1.43834 0.950684,-2.721792 1.081007,-2.852108 0.130323,-0.130323 0.716506,-0.353225 1.302627,-0.495341 1.402375,-0.340032 2.269985,-1.246722 2.546241,-2.660925 0.35226,-1.803336 -0.06541,-2.580958 -3.146492,-5.857952 -7.070505,-7.520104 -15.573275,-12.070804 -25.010573,-13.385714 -18.2154,-2.537977 -40.235613,6.809057 -62.258384,26.427129 -4.641992,4.135119 -13.654712,13.376527 -17.322918,17.762456 -10.54312,12.605997 -19.360468,26.535492 -23.772985,37.55615361 -0.965368,2.41110099 -1.470765,3.36188899 -1.80346,3.39280799 -0.651568,0.06058 -3.99767,-2.239264 -6.969428,-4.79019199 -1.545933,-1.32701301 -2.890275,-2.28126101 -3.476849,-2.46796401 -0.525989,-0.167411 -1.080329,-0.428373 -1.231859,-0.579904 -0.31405,-0.314048 -2.09714,-0.305922 -3.09341,0.01406 -0.99039,0.318129 -1.57105,1.018755 -1.87167,2.258371 z m 11.0476,8.258452 c 3.653228,3.6532334 5.274884,4.7184014 7.183472,4.7184014 1.102039,0 1.259843,-0.09001 2.359471,-1.345802 0.648143,-0.7401884 2.622738,-3.8140684 4.387986,-6.8308374 6.872272,-11.74455 14.704176,-22.8355906 24.604032,-34.8426676 4.729279,-5.735928 17.551401,-18.779039 22.625486,-23.015443 18.2106032,-15.204186 33.8637514,-21.502271 48.363542,-19.459179 6.522793,0.919096 14.368883,4.524605 18.545833,8.522351 l 1.325613,1.268743 -1.028927,1.801869 c -1.282591,2.246081 -2.835684,6.721192 -3.959162,11.408012 -2.201432,9.183752 -7.564202,26.511672 -8.223997,26.572994 -0.236177,0.02199 -1.151276,-0.569428 -2.033552,-1.314179 -3.221282,-2.719125 -7.701349,-5.164639 -12.212431,-6.666335 -10.8935235,-3.626352 -24.32499,-2.034303 -37.073317,4.394352 -18.043439,9.098843 -34.921276,26.4704966 -42.830027,44.083165 -0.620324,1.381456 -1.393411,2.89673 -1.717974,3.367285 -0.911906,1.322099 -0.746119,2.961312 0.4405,4.355416 0.852971,1.002109 5.509583,4.905821 8.474235,7.104083 1.235771,0.916311 1.112091,1.065209 -1.790421,2.155555 -1.192383,0.447921 -3.758129,1.536888 -5.701656,2.419916 -3.734298,1.696663 -10.255474,3.784066 -15.678659,5.018685 -3.953879,0.900121 -9.856706,1.680258 -10.207291,1.349027 -0.140308,-0.132583 -0.17712,-0.615565 -0.08177,-1.073315 0.09535,-0.457742 0.0979,-3.512647 0.0057,-6.788676 -0.244821,-8.695862 0.350565,-29.7276264 0.855856,-30.2329124 0.09295,-0.09295 1.608321,1.270322 3.367495,3.029492 z"
         id="path2998"
         inkscape:connector-curvature="0"
         inkscape:export-filename="C:\Users\Christian\Dropbox\CLD\Orange House\palisade_wine\img\instructions.png"
         inkscape:export-xdpi="300"
         inkscape:export-ydpi="300" />
      <text
         xml:space="preserve"
         style="font-size:40px;font-style:normal;font-weight:normal;line-height:69.99999881%;letter-spacing:0px;word-spacing:0px;fill:#000000;fill-opacity:1;stroke:none;font-family:Sans"
         x="230.11803"
         y="-98.738518"
         id="text3002"
         sodipodi:linespacing="69.999999%"
         inkscape:export-filename="C:\Users\Christian\Dropbox\CLD\Orange House\palisade_wine\img\instructions.png"
         inkscape:export-xdpi="300"
         inkscape:export-ydpi="300"><tspan
           sodipodi:role="line"
           id="tspan3004"
           x="230.11803"
           y="-98.738518"
           style="font-style:normal;font-variant:normal;font-weight:normal;font-stretch:normal;text-align:center;line-height:69.99999881%;text-anchor:middle;font-family:Ink Free;-inkscape-font-specification:Ink Free">Start here!</tspan><tspan
           sodipodi:role="line"
           x="230.11803"
           y="-70.738518"
           id="tspan3006"
           style="font-style:normal;font-variant:normal;font-weight:normal;font-stretch:normal;text-align:center;line-height:69.99999881%;text-anchor:middle;font-family:Ink Free;-inkscape-font-specification:Ink Free">Add your starting</tspan><tspan
           sodipodi:role="line"
           x="230.11803"
           y="-42.738514"
           style="font-style:normal;font-variant:normal;font-weight:normal;font-stretch:normal;text-align:center;line-height:69.99999881%;text-anchor:middle;font-family:Ink Free;-inkscape-font-specification:Ink Free"
           id="tspan3018">location or address</tspan><tspan
           sodipodi:role="line"
           x="230.11803"
           y="-14.738516"
           id="tspan3010"
           style="font-style:normal;font-variant:normal;font-weight:normal;font-stretch:normal;text-align:center;line-height:69.99999881%;text-anchor:middle;font-family:Ink Free;-inkscape-font-specification:Ink Free">in the box and then</tspan><tspan
           sodipodi:role="line"
           x="235.86021"
           y="13.261484"
           id="tspan3016"
           style="font-style:normal;font-variant:normal;font-weight:normal;font-stretch:normal;text-align:center;line-height:69.99999881%;text-anchor:middle;font-family:Ink Free;-inkscape-font-specification:Ink Free">click the button below. </tspan></text>
      <text
         xml:space="preserve"
         style="font-size:40px;font-style:normal;font-weight:normal;line-height:69.99999881%;letter-spacing:0px;word-spacing:0px;fill:#000000;fill-opacity:1;stroke:none;font-family:Sans"
         x="438.65704"
         y="100.91236"
         id="text3002-8"
         sodipodi:linespacing="69.999999%"
         inkscape:export-filename="C:\Users\Christian\Dropbox\CLD\Orange House\palisade_wine\img\venue_expand.png"
         inkscape:export-xdpi="300"
         inkscape:export-ydpi="300"><tspan
           sodipodi:role="line"
           x="438.65704"
           y="100.91236"
           style="font-style:normal;font-variant:normal;font-weight:normal;font-stretch:normal;text-align:center;line-height:69.99999881%;text-anchor:middle;font-family:Ink Free;-inkscape-font-specification:Ink Free"
           id="tspan3079">Tip:</tspan><tspan
           sodipodi:role="line"
           x="438.65704"
           y="128.91235"
           style="font-style:normal;font-variant:normal;font-weight:normal;font-stretch:normal;text-align:center;line-height:69.99999881%;text-anchor:middle;font-family:Ink Free;-inkscape-font-specification:Ink Free"
           id="tspan3085">Click venue images</tspan><tspan
           sodipodi:role="line"
           x="438.65704"
           y="156.91235"
           style="font-style:normal;font-variant:normal;font-weight:normal;font-stretch:normal;text-align:center;line-height:69.99999881%;text-anchor:middle;font-family:Ink Free;-inkscape-font-specification:Ink Free"
           id="tspan3083">to see more details</tspan></text>
    </g>
  </g>
</svg>
